#!OML:ASF H:\Terrain\Walking\May29\JustinRory\rory.ASF
:FULLY-SPECIFIED
:DEGREES
1613
root 9.61426 18.2279 -9.14752 -356.963 -25.7525 4.2972
lowerback 1.84067 -0.170376 -0.229507
upperback 1.28147 -0.234168 -1.43234
thorax 0.275167 -0.115129 -1.33407
lowerneck -11.3753 -4.34742 -3.67901
upperneck 13.1659 -5.88729 4.07368
head 6.09054 -2.73519 1.3781
rclavicle -3.00662e-015 -2.87244e-014
rhumerus -41.634 -40.7619 0.461849
rradius 96.3878
rwrist 0.318953
rhand -34.2309 41.7441
rfingers 7.12502
rthumb -7.40241 11.8936
lclavicle -3.00662e-015 -2.87244e-014
lhumerus -35.151 25.0108 8.0136
lradius 77.7557
lwrist 14.1603
lhand -39.6912 20.7441
lfingers 7.12502
lthumb -12.6701 50.3398
rfemur -11.2479 10.4063 15.2692
rtibia 26.6505
rfoot -14.7463 -19.3323
rtoes 2.7365
lfemur -15.6333 1.43177 -9.80888
ltibia 33.1925
lfoot -12.0656 9.73731
ltoes -14.0733
1614
root 9.56975 18.2402 -9.1646 -356.583 -25.7066 4.02032
lowerback 1.95316 -0.129854 -0.1123
upperback 1.15226 -0.181048 -1.47825
thorax 0.0805597 -0.0885192 -1.44723
lowerneck -11.8449 -4.23807 -3.36927
upperneck 13.6259 -5.7735 3.91219
head 6.29806 -2.66673 1.27508
rclavicle 2.32205e-014 3.67752e-015
rhumerus -41.6187 -40.7999 1.13819
rradius 94.1121
rwrist 0.247459
rhand -35.0511 42.8084
rfingers 7.12502
rthumb -8.19406 12.9873
lclavicle 2.32205e-014 3.67752e-015
lhumerus -34.9056 24.7646 7.21748
lradius 77.8397
lwrist 14.4272
lhand -40.1036 20.9
lfingers 7.12502
lthumb -13.0677 50.4706
rfemur -11.3999 10.9478 15.7177
rtibia 26.3841
rfoot -14.3132 -19.9632
rtoes 3.10429
lfemur -16.2221 2.0363 -9.38515
ltibia 33.2959
lfoot -11.8257 8.89348
ltoes -14.3219
1615
root 9.54287 18.257 -9.13155 -356.652 -25.9106 4.08608
lowerback 1.57032 -0.0579592 0.142032
upperback 1.43549 -0.0754459 -1.782
thorax 0.587144 -0.0303985 -1.90437
lowerneck -12.2691 -4.07804 -2.90648
upperneck 13.6529 -5.64324 3.98434
head 6.36345 -2.56778 1.2273
rclavicle -3.36226e-014 8.57259e-015
rhumerus -41.843 -41.1573 1.60345
rradius 91.8331
rwrist 0.414477
rhand -35.4048 43.7188
rfingers 7.12502
rthumb -8.53545 13.9113
lclavicle -3.36226e-014 8.57259e-015
lhumerus -34.8922 24.6113 6.38732
lradius 77.7471
lwrist 15.2816
lhand -39.9333 20.9283
lfingers 7.12502
lthumb -12.9035 50.5094
rfemur -11.2088 11.2386 15.6677
rtibia 26.2405
rfoot -14.1792 -20.1064
rtoes 3.38596
lfemur -16.2211 1.85402 -9.5549
ltibia 33.2871
lfoot -12.2075 8.7676
ltoes -14.9592
1616
root 9.5237 18.2665 -9.07164 -356.974 -25.9654 4.07217
lowerback 0.625067 0.0706161 0.843195
upperback 2.27603 0.114968 -2.12984
thorax 1.98997 0.0907904 -2.65889
lowerneck -13.0048 -4.05376 -2.74331
upperneck 13.4959 -5.6742 4.33384
head 6.44697 -2.53611 1.29655
rclavicle -1.34242e-014 -2.21893e-014
rhumerus -42.5246 -42.1822 2.40835
rradius 89.5117
rwrist 0.835563
rhand -35.4058 43.4566
rfingers 7.12502
rthumb -8.53643 13.6492
lclavicle -1.34242e-014 -2.21893e-014
lhumerus -35.0039 24.1021 5.96789
lradius 77.2593
lwrist 16.7658
lhand -39.944 20.866
lfingers 7.12502
lthumb -12.9138 50.4465
rfemur -10.5527 10.9219 15.701
rtibia 26.0332
rfoot -14.3201 -19.8054
rtoes 3.52052
lfemur -15.7507 1.32981 -9.67343
ltibia 33.1341
lfoot -12.882 8.66123
ltoes -14.1295
1617
root 9.47947 18.2643 -9.11252 -356.548 -24.9955 4.05831
lowerback 0.814613 -0.17937 0.516817
upperback 2.01762 -0.22144 -2.08277
thorax 1.60102 -0.088197 -2.42802
lowerneck -13.0182 -3.95215 -2.73596
upperneck 13.6417 -5.54024 4.31124
head 6.48995 -2.47107 1.30025
rclavicle 2.1711e-014 3.67752e-015
rhumerus -42.7634 -42.0689 3.1206
rradius 87.0385
rwrist 1.08729
rhand -35.0316 41.8568
rfingers 7.12502
rthumb -8.17524 12.035
lclavicle 2.1711e-014 3.67752e-015
lhumerus -33.7206 25.8026 5.60591
lradius 75.5578
lwrist 16.0616
lhand -38.1446 20.6364
lfingers 7.12502
lthumb -11.1788 50.3186
rfemur -10.7512 10.6783 16.0525
rtibia 25.9081
rfoot -14.4168 -20.5625
rtoes 4.66414
lfemur -16.5857 1.85914 -9.34407
ltibia 32.7903
lfoot -11.8802 7.29706
ltoes -13.7272
1618
root 9.44921 18.2778 -9.09217 -356.492 -25.1087 4.27406
lowerback 0.382163 -0.0334263 0.461965
upperback 2.14344 -0.0203711 -2.20801
thorax 1.9827 0.0161254 -2.52632
lowerneck -13.3023 -3.84148 -2.72548
upperneck 13.7507 -5.38355 4.27112
head 6.56626 -2.3924 1.29582
rclavicle -4.55962e-015 -2.68359e-015
rhumerus -43.194 -42.1894 3.91625
rradius 84.3911
rwrist 1.43913
rhand -33.6351 40.647
rfingers 7.12502
rthumb -6.82732 10.7771
lclavicle -4.55962e-015 -2.68359e-015
lhumerus -34.2161 24.2837 5.49889
lradius 75.1394
lwrist 18.0237
lhand -37.9471 20.9166
lfingers 7.12502
lthumb -10.9882 50.609
rfemur -10.7913 11.0807 15.9243
rtibia 25.8516
rfoot -14.4064 -21.0268
rtoes 4.38575
lfemur -16.6454 1.7895 -9.55605
ltibia 32.2999
lfoot -11.5863 7.66533
ltoes -13.6989
1619
root 9.42577 18.283 -9.07209 -356.685 -25.0601 4.83101
lowerback 0.822327 0.0914107 -0.0352131
upperback 1.78008 0.13837 -2.26674
thorax 1.36842 0.0823658 -2.30437
lowerneck -13.4088 -3.78018 -3.11057
upperneck 14.4116 -5.26787 4.37489
head 6.80559 -2.33999 1.39841
rclavicle 1.39118e-014 -6.26172e-015
rhumerus -43.6112 -41.4416 4.79861
rradius 81.6769
rwrist 1.73725
rhand -31.8402 39.9876
rfingers 7.12502
rthumb -5.09446 10.0689
lclavicle 1.39118e-014 -6.26172e-015
lhumerus -33.8559 23.7938 5.83841
lradius 74.0145
lwrist 18.3935
lhand -37.3979 21.3597
lfingers 7.12502
lthumb -10.4585 51.0795
rfemur -10.7215 11.2316 15.4761
rtibia 25.8801
rfoot -14.3031 -21.5379
rtoes 3.21734
lfemur -16.6096 1.44715 -10.0972
ltibia 31.7502
lfoot -11.8173 8.01804
ltoes -13.515
1620
root 9.40181 18.2857 -9.04976 -356.864 -25.0402 5.42258
lowerback 0.680431 0.164307 -0.767555
upperback 1.81933 0.239691 -2.29079
thorax 1.48931 0.123403 -1.9169
lowerneck -13.8181 -3.71458 -3.23405
upperneck 14.7519 -5.14397 4.30125
head 6.98235 -2.28383 1.3998
rclavicle -1.78207e-014 9.10682e-015
rhumerus -43.5522 -41.2365 5.07185
rradius 78.7959
rwrist 2.03803
rhand -30.9557 39.2921
rfingers 7.12502
rthumb -4.24037 9.3546
lclavicle -1.78207e-014 9.10682e-015
lhumerus -33.6726 23.8887 6.12149
lradius 72.8687
lwrist 18.2157
lhand -36.2484 22.164
lfingers 7.12502
lthumb -9.34946 51.9366
rfemur -10.6328 11.109 14.9616
rtibia 25.7758
rfoot -14.1578 -21.7019
rtoes 2.95942
lfemur -16.4864 1.15986 -10.6809
ltibia 31.1317
lfoot -12.3202 8.18268
ltoes -12.6055
1621
root 9.37518 18.2968 -9.03287 -356.808 -25.0867 5.33442
lowerback -0.0529756 0.176246 -0.726065
upperback 2.39775 0.284738 -2.34526
thorax 2.49827 0.149788 -1.99541
lowerneck -14.7173 -3.55478 -2.71177
upperneck 14.725 -4.95224 3.95357
head 7.09909 -2.17969 1.2092
rclavicle -3.3343e-014 1.31943e-014
rhumerus -43.4005 -41.804 4.76763
rradius 75.7458
rwrist 2.50077
rhand -30.4524 38.2464
rfingers 7.12502
rthumb -3.75431 8.29976
lclavicle -3.3343e-014 1.31943e-014
lhumerus -33.8307 24.4582 6.16507
lradius 71.8287
lwrist 18.032
lhand -35.0773 22.6192
lfingers 7.12502
lthumb -8.2194 52.4394
rfemur -10.5513 11.3494 15.1562
rtibia 25.6991
rfoot -14.1965 -22.0066
rtoes 3.76573
lfemur -16.3056 1.00956 -10.5671
ltibia 30.4729
lfoot -11.9663 8.70707
ltoes -12.1791
1622
root 9.35104 18.3087 -9.00651 -356.683 -25.1149 5.10934
lowerback -0.890829 0.248256 -0.292337
upperback 2.96437 0.401892 -2.4084
thorax 3.56394 0.224752 -2.3014
lowerneck -15.555 -3.44124 -2.43973
upperneck 14.7308 -4.80257 3.74286
head 7.22815 -2.0994 1.10073
rclavicle -6.82701e-014 -5.81445e-015
rhumerus -43.5656 -42.2488 4.71569
rradius 72.6778
rwrist 3.07241
rhand -29.3616 37.1427
rfingers 7.12502
rthumb -2.70091 7.18002
lclavicle -6.82701e-014 -5.81445e-015
lhumerus -33.7253 24.9483 6.35627
lradius 70.6299
lwrist 17.9727
lhand -34.4257 22.3816
lfingers 7.12502
lthumb -7.59044 52.2254
rfemur -10.4559 11.2923 15.4556
rtibia 25.6444
rfoot -14.2813 -22.0435
rtoes 3.50107
lfemur -16.1143 0.653157 -10.314
ltibia 29.8126
lfoot -11.3382 9.29611
ltoes -11.1649
1623
root 9.33188 18.3184 -8.97639 -356.488 -25.1669 5.04296
lowerback 0.81679 0.198863 -0.999955
upperback 1.46567 0.272717 -1.82151
thorax 1.04709 0.134087 -1.30475
lowerneck -14.6781 -3.14569 -2.79
upperneck 15.813 -4.27531 3.16484
head 7.40582 -1.92479 1.03519
rclavicle -3.83654e-014 -1.10325e-014
rhumerus -42.4029 -39.3576 4.50661
rradius 69.6569
rwrist 3.13669
rhand -27.7295 36.3996
rfingers 7.12502
rthumb -1.12463 6.42287
lclavicle -3.83654e-014 -1.10325e-014
lhumerus -35.4063 21.809 6.52504
lradius 69.8595
lwrist 18.7129
lhand -34.5457 21.2173
lfingers 7.12502
lthumb -7.70634 51.0568
rfemur -10.5182 10.8404 15.5225
rtibia 25.6033
rfoot -14.2071 -21.6635
rtoes 2.81967
lfemur -16.0327 0.114461 -10.2711
ltibia 29.1799
lfoot -10.982 9.91073
ltoes -8.68275
1624
root 9.31584 18.3258 -8.95811 -356.301 -25.239 4.90305
lowerback 2.79571 0.122864 -1.89074
upperback -0.140206 0.0789819 -1.12582
thorax -1.71208 0.0504479 -0.09758
lowerneck -13.5334 -2.76702 -3.14306
upperneck 16.758 -3.65889 2.70601
head 7.49248 -1.70609 1.02093
rclavicle -5.35476e-014 -6.75868e-015
rhumerus -41.0541 -36.3523 4.13303
rradius 66.5177
rwrist 3.56823
rhand -26.2881 35.8894
rfingers 7.12502
rthumb 0.267477 5.90983
lclavicle -5.35476e-014 -6.75868e-015
lhumerus -37.4424 18.711 6.90876
lradius 69.1108
lwrist 19.1702
lhand -34.6132 20.7658
lfingers 7.12502
lthumb -7.77144 50.6029
rfemur -10.6331 10.9386 15.6957
rtibia 25.6392
rfoot -14.1546 -21.713
rtoes 3.51361
lfemur -15.9984 -0.288221 -10.1963
ltibia 28.5641
lfoot -10.1937 10.725
ltoes -9.08294
